# xmcd CD database file
#
# Track frame offsets:
#	150
#	22331
#	39430
#	58746
#	79592
#	99077
#	122425
#	139280
#	165466
#	189805
#	213085
#	233936
#	261009
#	282007
#	299188
#	317168
#
# Disc length: 4407 seconds
#
# Revision: 0
# Processed by: cddbd v1.5.2PL0 Copyright (c) Steve Scherf et al.
# Submitted via: CDex 1.51
#
DISCID=df113510
DTITLE=Wild Dogs - Reign Of Terror
DYEAR=1987
DGENRE=Power Metal
TTITLE0=Metal Fuel
TTITLE1=Man Against Machine
TTITLE2=Call Of The Dark
TTITLE3=Siberian Vacation
TTITLE4=Psychoradio
TTITLE5=Streets Of Berlin
TTITLE6=Spellshock
TTITLE7=Reign Of Terror
TTITLE8=We Rule The Night
TTITLE9=Madhouse (1989 Unreleased Recording)
TTITLE10=Livin' On The Bad Side (1989 Unreleased Recording)
TTITLE11=Metal Free America (1989 Unreleased Recording)
TTITLE12=Man on Fire (1989 Unreleased Recording)
TTITLE13=Thanx For The Ride (1989 Unreleased Recording)
TTITLE14=Dead To The World (1989 Unreleased Recording)
TTITLE15=Screaming The Night Away (1989 Unreleased Recording)
EXTD=YEAR: 1987
EXTT0=
EXTT1=
EXTT2=
EXTT3=
EXTT4=
EXTT5=
EXTT6=
EXTT7=
EXTT8=
EXTT9=
EXTT10=
EXTT11=
EXTT12=
EXTT13=
EXTT14=
EXTT15=
PLAYORDER=
